<?xml version="1.0" encoding="UTF-8"?>
<!-- Created with Inkscape (http://www.inkscape.org/) -->
<svg width="1024" height="1024" version="1.1" viewBox="0 0 270.93 270.93" xmlns="http://www.w3.org/2000/svg">
 <g>
  <path d="m8.0361 46.877 232.71-32.144 10.715 232.38h-241.75z" fill="#fbfbf6" fill-rule="evenodd" stroke-width=".26458"/>
  <path d="m16.916 45.462c-0.18777-2.0421 14.721-5.3017 41.4-11.035 10.079-2.1681 34.152-7.2833 50.021-10.633 22.59-4.7695 60.513-12.863 91.933-18.894 7.9682-1.5213 16.069-2.6993 24.372-3.6485 3.1788-0.37005 6.5869-0.72649 10.189-0.91531 1.0018-0.068734 2.36-0.10777 4.0724-0.028183 0.38208-0.026655 1.3337 0.097497 2.8483 0.41381 0.41588 0.016691 1.4299 0.40686 3.0356 1.1839 1.2441-0.058672 3.0862 2.1346 5.4985 6.5904 2.7207 8.1985 3.5939 16.205 3.7771 23.607 0.28487 7.0545 0.15152 13.833 0.84903 19.499 4.1632 36.924 6.4423 74.677 7.9616 115.75 0.0637 1.7522 0.20203 3.6567 0.34129 5.7345v3e-5c0.21139 3.1015 0.44093 6.2195 0.6729 9.3906v3e-5c0.58547 7.9997 1.1851 16.188 1.714 24.39 0.29975 4.6339 0.58946 9.341 0.82574 14.092 0.16776 3.3735 0.30796 6.7562 0.40673 10.154 0.0912 3.0338 0.14906 6.2078 0.0737 9.53l-1e-5 4e-5c-0.0242 1.1845-0.0801 2.5092-0.20141 3.9708v4e-5c-0.031 0.85098-0.21995 2.2603-0.65596 4.2029l-2e-5 1e-4c-0.92907 3.5449-2.7122 6.6224-5.2492 9.1001l-8e-5 7e-5c-2.6079 2.3596-5.1009 3.8779-7.3193 4.6448-5.1767 1.8466-9.6103 2.421-13.003 2.3927h-5e-5c-4.0689 0.14161-7.8086-0.0127-11.19-0.20973h-4e-5c-3.0938-0.15476-5.6314-0.37773-7.6703-0.33095-15.352 0.19221-30.388-0.90573-44.458-2.0069-14.82-1.1342-28.562-2.1499-42.132-1.9728-36.123 0.42302-70.899 4.1218-101.72 8.573h-1.4e-5c-0.71204 0.0684-1.8559 0.35763-3.4216 0.6873-1.7087 0.37834-3.6597 0.77754-5.8776 1.0819 0 0-3e-5 1e-5 -3e-5 1e-5 -1.5786 0.38868-4.3121 0.48157-8.0532-0.14405-1.5674-0.14635-3.6864-1.1951-6.23-3.2084-2.4651-2.5609-3.767-5.309-3.9188-8.1082-0.26378-4.1634-0.49579-8.0048-0.90007-11.716-0.22668-2.2147-0.24997-4.1172-0.20693-5.6949 0.23967-8.9376 0.19594-18.237 0.17417-26.693-0.033824-12.85-0.098531-21.867-0.13236-34.716-0.02814-12.958 0.00403-24.2 0.15996-34.77 0.1562-10.564 0.38239-19.002 0.8717-27.023 0.48304-6.9149-0.12281-15.084 0.36024-21.999 0.37044-5.2448 1.2814-7.922 2.1225-7.922 0.86533 0 1.6281 2.6368 2.8559 7.4945 0.7975 3.155 3.575 13.789 4.3456 22.273 1.2232 12.991 1.3195 13.679 2.5427 26.67 0.92504 10.014 1.9946 22.152 2.9989 34.603 0.85589 10.609 1.7609 22.534 2.5455 34.764 0.54729 8.4962 1.121 17.88 1.3621 27.318 0.04305 1.2908 0.08042 2.2894 0.24352 2.949 0.68518 4.3224 1.1522 8.4999 1.6045 12.652-0.07045-1.8599-0.97767-3.683-2.7467-5.6034-1.8045-1.3332-2.9458-2.0129-3.5284-1.9438-0.96766-0.023-0.86938-0.27548 0.38667-0.30605h2.3e-5c1.1062-0.19023 2.4287-0.5444 4.0249-0.95242 1.1597-0.31875 2.7637-0.76375 4.8396-1.1599l4.1e-5 -1e-5c31.35-5.9127 66.986-10.835 104.72-12.118 14.983-0.47987 29.591 0.29742 44.512 1.2475 14.038 0.86867 28.368 1.7788 42.192 1.4556 3.6781-0.0534 6.8253 0.15796 9.4762 0.29636h3e-5c3.2309 0.14038 6.1647 0.26963 8.7552 0.13592l2e-5 -1e-5c2.4615-0.27041 4.0059-0.24758 4.3035-0.58054-0.0366-0.102-0.4337 0.24645-1.3549 0.96459l-3e-5 2e-5c-0.95903 0.94222-1.5894 2.0467-1.9834 3.4512v3e-5c-0.0894 0.55326-0.13728 0.55295-0.0462-0.0246v-3e-5c0.0568-0.63249 0.0803-1.4097 0.10416-2.3302l1e-5 -3e-5c0.0588-2.5585-3e-3 -5.2686-0.0865-8.1439-0.0951-3.179-0.23034-6.3816-0.39189-9.6142-0.22747-4.5513-0.50608-9.1414-0.79216-13.733-0.5028-8.0436-1.0713-16.212-1.6138-24.212 0-1e-5 0-2e-5 -1e-5 -3e-5 -0.21504-3.1698-0.42929-6.342-0.62627-9.5442v-4e-5c-0.12697-2.0318-0.26429-4.2132-0.33799-6.5595-1.2162-40.989-2.8075-77.785-5.976-114.2-0.65406-7.856-0.3586-15.19-0.39807-21.346-0.15882-6.5464-0.38712-12.213-1.9441-16.846 2.3813 4.3626 4.1361 6.4928 5.294 6.3864 1.4637 0.69851 2.3203 1.0423 2.5788 1.0196 0.98417 0.18361 1.3877 0.26333 1.2249 0.19987-0.20827-0.04998-0.77802-0.03174-1.6911-0.03248-2.7806 0.03791-5.7432 0.25052-8.8198 0.48508-7.9142 0.61811-15.509 1.4128-22.901 2.5056-38.969 5.7845-62.196 9.5625-92.818 13.601-20.138 2.6555-36.725 4.5228-51.104 5.7484-27.318 2.3296-42.903 1.7481-43.091-0.294z" fill="#262626"/>
 </g>
</svg>
