<?xml version="1.0" encoding="UTF-8"?>
<!-- Created with Inkscape (http://www.inkscape.org/) -->
<svg width="1024" height="1024" version="1.1" viewBox="0 0 270.93 270.93" xmlns="http://www.w3.org/2000/svg">
 <path d="m9.4847 8.6329 248.41-2.9649 1.0984 88.004-3.6013 164.5-247.12 1.642z" fill="#fbfbf6" fill-rule="evenodd" stroke-width=".26458"/>
 <path d="m9.0105 7.7119c3.6828-1.2486 2.8398 18.097 1.1966 247.32-0.0041 1.1701-0.07503 2.2801-0.1447 3.3439 0 0-3e-6 5e-5 -3e-6 5e-5 0.16791 0.74245-0.074274 0.83404-0.32028-0.20444 1e-7 0-1.346e-4 -8e-5 -1.346e-4 -8e-5 -1.27-0.79686-1.4538-1.1895-0.94088-0.80302l5.5e-5 5e-5c0.87187 0.019 1.8629-0.0389 2.9756-0.0392h5e-5c29.98 0.19523 63.582 0.38674 100.91 0.55423 38.983 0.17491 88.399 0.3775 137.18 0.34708 1.437-2e-3 2.7448 0.0829 3.9189 0.0377 0.69589-0.0364 1.2676-0.0533 1.6832-0.16505 0.15837-0.0698 0.13961-0.0291-0.0806 0.0662-0.35504 0.0395-0.6201 0.59377-0.90369 1.6837-3e-5 1e-3 0.0238-1.1148 0.0238-1.1136 1.0386-48.67 1.7544-91.033 2.1899-131 0.50519-46.374 0.61779-83.753 0.16887-119.85v-1e-7c0.0646 0.36198 0.102 0.5345 0.22089 0.62079 0.0322-0.021244-0.15158-0.080619-0.45329-0.23951-0.71142-0.30309-1.5782-0.43039-2.492-0.46346-25.411-0.49299-51.358-0.3248-71.415-0.16513-30.776 0.24532-60.707 0.73486-80.57 1.0654-31.987 0.53228-50.915 0.88644-65.851 0.99327-9.5248 0.068127-15.819 0.014777-19.96-0.16661-2.5782-0.11294-4.308-0.2751-5.4392-0.48575l-2e-6 -4e-7c-0.66404-0.12365-1.1217-0.26398-1.4234-0.42065l-1e-7 -1e-7c-0.16818-0.087335-0.28789-0.17976-0.36787-0.27718l-4e-7 -6e-7c-0.04277-0.052102-0.07418-0.10564-0.095563-0.1606-0.035724-0.12106-0.035506-0.24868-0.00985-0.3828l1e-7 -7e-7c0.010642-0.040057 0.02433-0.080713 0.040687-0.12196 0.014604-0.036986 0.029436-0.073559 0.044809-0.10973 0.083182-0.19574 0.1822-0.37977 0.3467-0.55406h1e-7c0.25189-0.26686 0.6574-0.5109 1.3947-0.73887l2e-6 -5e-7c1.0162-0.31419 2.6639-0.59815 5.4084-0.86795 3.9238-0.38571 10.131-0.74592 19.939-1.1134 13.17-0.49348 34.897-1.0672 65.871-1.6066 20.2-0.3518 49.229-0.77682 80.634-0.94277 20.009-0.10593 46.025-0.19715 71.572 0.37208 1.4672 0.016329 3.0116 0.28707 4.5275 0.89776 0.72501 0.26188 1.5434 0.75092 2.358 1.5312 0.80884 0.79326 1.3077 1.9181 1.3842 3.2754 0.34498 36.145 0.13168 73.46-0.47468 119.98-0.52129 40.004-1.3074 82.243-2.4022 131.04-3e-5 1e-3 -0.025 1.1124-0.025 1.1139-0.30545 1.4773-0.8393 2.3345-1.4926 2.553-0.66145 0.37154-1.1738 0.55264-1.5018 0.59488-1.0168 0.2212-1.9178 0.28076-2.6735 0.2938-1.5101 0.0472-2.875-0.0375-4.0954-0.0387-47.402-0.0165-99.707-0.21217-137.2-0.33606-1.9759-7e-3 -98.926-0.34257-100.9-0.3491h-4.1e-5c-0.89973 2e-3 -1.9197 0.0628-3.058 0.0472l-3.47e-5 4e-5c-0.32354 0.39753-1.5871 6e-3 -3.4136-1.5542l-1.965e-4 -1.7e-4c-0.80558-1.8751-0.84481-2.9844-0.59396-3.1378 0 0 2.8e-6 -5e-5 2.8e-6 -5e-5 0.064526-1.0736 0.12878-2.0758 0.12466-3.0225 0.96635-232.57 0.48695-246.07 4.1849-247.31z" fill="#262626"/>
</svg>
