<?xml version="1.0" encoding="UTF-8"?>
<!-- Created with Inkscape (http://www.inkscape.org/) -->
<svg width="1024" height="1024" version="1.1" viewBox="0 0 270.93 270.93" xmlns="http://www.w3.org/2000/svg">
 <g>
  <path d="m13.059 58.596 239.41-20.09 6.6967 231.04-249.45 1.3394z" fill="#fbfbf6" fill-rule="evenodd" stroke-width=".26458"/>
  <path d="m143.23 58.45c-29.02 1.2861-56.226 2.9026-82.928 5.3094-7.9116 0.67833-15.248 0.40272-21.392 0.45627-6.5139 0.1802-12.115 0.40905-16.631 1.9469 6.3008-4.2037 8.7496-6.4113 7.3234-6.6833 0.44002-1.1795 0.64532-1.788 0.60013-1.8346 0.06881-0.4498 0.08929-0.48266 0.02058-0.11235-0.14176 1.0104-0.22402 2.2634-0.32797 3.7286-0.30919 4.5647-0.50447 9.3035-0.71121 13.99-0.25312 5.7539-0.48215 11.237-0.76529 16.892-0.23455 4.7189-0.4744 9.4341-0.91491 14.312-2.161 23.379-5.6783 58.647-7.8393 82.026l-1e-6 2e-5c-4.7994 51.266-6.6486 82.295-9.9548 82.402-3.306 0.10662-7.5346-31.378-7.3411-83.239 5e-7 0 0-2e-5 0-2e-5 0.089819-24.787 1.002-50.641 2.4593-82.75 0.19112-4.2949 0.21225-8.6895 0.25423-13.433 0.039685-4.9461 0.060803-11.878 0.10049-16.824 0.0325-4.6707 0.068046-9.5963 0.24135-14.609 0.045272-1.4961 0.11834-3.2301 0.30277-5.1879 0.023523-0.46875 0.14127-1.3436 0.39592-2.6185 0.00753-0.28066 0.27031-1.1238 0.80552-2.5238-1.3778-0.38444 1.1244-2.7253 7.5414-6.9677 8.3218-2.7421 16.402-3.6127 23.821-3.7742 7.0947-0.2714 13.841-0.11735 19.452-0.79081 27.175-2.9802 55.043-4.9217 84.31-6.22 10.622-0.47116 21.149-0.84556 31.506-1.153 1.7543-0.04873 3.6727-0.17269 5.7361-0.29544 3.1118-0.188 6.2603-0.39494 9.3958-0.59905 8.2356-0.53632 16.283-1.0557 24.403-1.5046 8.115-0.45006 16.123-0.84376 24.243-0.99638 3.0445-0.05991 6.2044-0.08532 9.5006 0.02236 1.1799 0.03601 2.4908 0.10317 3.9297 0.23467l3e-5 2e-6c0.84431 0.04056 2.2189 0.23225 4.0943 0.66252l6e-5 1.5e-5c3.4201 0.9089 6.3794 2.6432 8.7524 5.0917l5e-5 5.4e-5c2.2698 2.5259 3.721 4.9452 4.4546 7.1011 1.7759 5.0662 2.2874 9.4121 2.232 12.759 0.0993 4.0349-0.0998 7.7519-0.33793 11.104v2.7e-5c-0.19458 3.1-0.45503 5.6289-0.44886 7.7404-9e-3 35.599-3.0115 66.878-3.1653 93.585 0 0 0 1e-5 -1e-5 2e-5 -0.354 64.127-3.1071 104.53-6.8499 104.52-3.743-0.0105-7.7438-39.558-12.216-103.91 0 0 0-1e-5 -1e-5 -2e-5 -1.9005-27.785-0.60143-59.78-1.8399-93.773-0.0939-3.6046 0.0775-6.7135 0.17845-9.4062v-2.2e-5c0.0971-3.218 0.18444-6.1981 8e-3 -8.8414-0.29648-2.4787-0.33209-4.1237-0.74126-4.5473-0.13423-0.02256 0.1484 0.29995 0.77435 1.1366l2e-5 1.8e-5c0.83968 0.87275 1.8266 1.4528 3.1035 1.8259l2e-5 3e-6c0.49243 0.08476 0.44704 0.13346-0.13318 0.05276l-2e-5 -3e-6c-0.65347-0.04644-1.4429-0.05881-2.3714-0.07091-2.572-0.02621-5.2832 0.06746-8.1733 0.1825-7.6225 0.31152-15.307 0.84408-23.35 1.4201-8.0423 0.57793-15.888 1.1926-24.199 1.8231-3.1346 0.23793-6.325 0.47831-9.5391 0.70012-2.0157 0.14149-4.2057 0.2949-6.558 0.38384-10.273 0.38032-20.721 0.79018-31.211 1.2551z" fill="#262626"/>
 </g>
</svg>
